<svg xmlns="http://www.w3.org/2000/svg" width="1400" height="950" viewBox="0 0 1400 950" role="img" aria-label="Smart TV Enova 65 pulgadas con dos vistas">
  <defs>
    <linearGradient id="bg" x1="0" x2="1" y1="0" y2="1">
      <stop offset="0" stop-color="#eef8ff"/>
      <stop offset="0.55" stop-color="#ffffff"/>
      <stop offset="1" stop-color="#e9f5ff"/>
    </linearGradient>
    <linearGradient id="screen" x1="0" x2="1" y1="0" y2="1">
      <stop offset="0" stop-color="#0ea5e9"/>
      <stop offset="0.42" stop-color="#e0f2fe"/>
      <stop offset="0.62" stop-color="#facc15"/>
      <stop offset="1" stop-color="#0369a1"/>
    </linearGradient>
    <linearGradient id="bezel" x1="0" x2="1">
      <stop offset="0" stop-color="#020617"/>
      <stop offset="0.55" stop-color="#111827"/>
      <stop offset="1" stop-color="#020617"/>
    </linearGradient>
    <filter id="shadow" x="-20%" y="-20%" width="140%" height="150%">
      <feDropShadow dx="0" dy="28" stdDeviation="30" flood-color="#0f172a" flood-opacity="0.28"/>
    </filter>
    <filter id="soft" x="-15%" y="-15%" width="130%" height="130%">
      <feGaussianBlur stdDeviation="12"/>
    </filter>
  </defs>
  <rect width="1400" height="950" rx="42" fill="url(#bg)"/>
  <circle cx="1180" cy="130" r="210" fill="#bae6fd" opacity="0.35" filter="url(#soft)"/>
  <circle cx="200" cy="800" r="230" fill="#fde68a" opacity="0.26" filter="url(#soft)"/>
  <text x="104" y="112" font-family="Inter, Arial, sans-serif" font-size="28" font-weight="800" fill="#0369a1">ENOVA SMART TV</text>
  <text x="104" y="178" font-family="Inter, Arial, sans-serif" font-size="76" font-weight="900" fill="#0f172a">65 pulgadas</text>
  <text x="108" y="226" font-family="Inter, Arial, sans-serif" font-size="30" font-weight="700" fill="#475569">4K UHD Frameless • Ideal Mundial</text>
  <g filter="url(#shadow)">
    <rect x="115" y="167" width="530" height="298" rx="18" fill="url(#bezel)"/>
    <rect x="129" y="181" width="502" height="256" rx="8" fill="url(#screen)"/>
    <path d="M133 373 C260 313, 485 317, 621 373" fill="none" stroke="#ffffff" stroke-width="5" opacity="0.7"/>
    <path d="M129 181 L631 181 L513 253 L205 235 Z" fill="#ffffff" opacity="0.22"/>
    <text x="145" y="447" font-family="Arial, sans-serif" font-size="18" font-weight="700" fill="#e5e7eb">enova</text>
    <rect x="348" y="465" width="64" height="52" rx="8" fill="#111827"/>
    <path d="M262 537 L498 537 L460 513 L300 513 Z" fill="#020617"/>
  </g>
  <g transform="translate(860 265) skewY(-9)" filter="url(#shadow)">
    <rect x="0" y="0" width="238" height="244" rx="14" fill="url(#bezel)"/>
    <rect x="12" y="12" width="214" height="208" rx="8" fill="url(#screen)" opacity="0.96"/>
    <path d="M12 12 L226 12 L164 58 L58 48 Z" fill="#ffffff" opacity="0.22"/>
    <text x="22" y="230" font-family="Arial, sans-serif" font-size="14" font-weight="700" fill="#e5e7eb">enova</text>
  </g>
  <g font-family="Inter, Arial, sans-serif">
    <rect x="925" y="674" width="320" height="82" rx="24" fill="#0f172a" opacity="0.95"/>
    <text x="958" y="706" font-size="18" font-weight="700" fill="#bae6fd">Precio referencia</text>
    <text x="958" y="742" font-size="34" font-weight="900" fill="#facc15">$ 1.249.999</text>
    <rect x="925" y="776" width="320" height="58" rx="18" fill="#16a34a"/>
    <text x="966" y="813" font-size="22" font-weight="900" fill="#052e16">Consultar stock hoy</text>
  </g>
  <g font-family="Inter, Arial, sans-serif" font-weight="800" font-size="20">
    <rect x="104" y="796" width="194" height="54" rx="18" fill="#e0f2fe"/>
    <text x="132" y="831" fill="#075985">2 vistas</text>
    <rect x="316" y="796" width="216" height="54" rx="18" fill="#fef3c7"/>
    <text x="342" y="831" fill="#92400e">Google TV</text>
    <rect x="550" y="796" width="214" height="54" rx="18" fill="#dcfce7"/>
    <text x="578" y="831" fill="#166534">Mercado Pago</text>
  </g>
</svg>
